<svg xmlns="http://www.w3.org/2000/svg" viewBox="0 0 50 50" fill="#2b3432"><path d="M24.643 2.004C12.157 2.194 2 12.73 2 25.496V42c0 3.309 2.692 6 6 6h16.504c12.764 0 23.302-10.158 23.492-22.643.095-6.28-2.295-12.183-6.732-16.62-4.438-4.439-10.354-6.801-16.621-6.733zM30.5 9c.169 0 .333.017.5.025V9c.436 0 .82.061 1.182.148C37.174 9.956 41 14.284 41 19.5 41 25.29 36.29 30 30.5 30H27v3.5C27 39.29 22.29 44 16.5 44c-.169 0-.333-.017-.5-.025V44c-.435 0-.82-.061-1.182-.148C9.826 43.044 6 38.716 6 33.5 6 27.71 10.71 23 16.5 23H20v-3.5C20 13.71 24.71 9 30.5 9zm0 2c-4.687 0-8.5 3.813-8.5 8.5V25h-3.5c-.827 0-1.5.673-1.5 1.5s.673 1.5 1.5 1.5H21a1 1 0 0 1 1 1v4.5c0 3.032-2.468 5.5-5.5 5.5-.042 0-.083-.005-.125-.006V39H15.5c-.883 0-1.5.565-1.5 1.375 0 .62.335 1.268 1.197 1.516.426.066.859.109 1.303.109 4.687 0 8.5-3.813 8.5-8.5V28h4.5c.827 0 1.5-.673 1.5-1.5s-.673-1.5-1.5-1.5H26a1 1 0 0 1-1-1v-4.5c0-3.032 2.468-5.5 5.5-5.5.042 0 .083.005.125.006V14h.875c.883 0 1.5-.565 1.5-1.375 0-.62-.335-1.267-1.197-1.516A8.607 8.607 0 0 0 30.5 11zm0 5c-1.93 0-3.5 1.57-3.5 3.5V23h3.5c1.93 0 3.5-1.57 3.5-3.5S32.43 16 30.5 16zm-14 14c-1.93 0-3.5 1.57-3.5 3.5s1.57 3.5 3.5 3.5 3.5-1.57 3.5-3.5V30h-3.5z"/></svg>