<svg xmlns="http://www.w3.org/2000/svg" viewBox="0 0 50 50" fill="#2b3432"><path d="M24.938 1.844c-1.887.004-3.774.148-4.97.406-3.269.703-5.866 1.754-8.655 3.563-5.692 3.69-9.465 9.222-10.938 16-.281 1.289-.375 2.566-.375 5 0 3.144.145 4.238.844 6.812l.187.75 2.375.063c1.512 0 2.953-.278 4.063-.782A4.509 4.509 0 0 1 9 33.313c.676-.008.848.113 1.813 1.156.902.976 1.203 1.156 1.874 1.25 1.297.176 1.88-.621.844-1.157-.781-.402-2.312-2.722-2.312-3.5 0-1.585 1.289-2.425 2.656-1.968.066.043.121.082.188.125.3.187.472.48.75 1.062.078.168.16.324.25.5.117.227.23.442.312.625.254.574.59 1.375 1.469 1.375.293 0 .644-.058.937-.218.2.16.54.464 1.094 1.03 1.816 1.86 3.043 2.563 5.031 2.563.719 0 1.555-.078 2.532-.25 1.632-.285 1.64-.27 2.156-.062.988.398 1.336.398 2.375 0 .547-.207.605-.223 1.093-.094 1.317.355 2.16.355 3.344-.063a4.53 4.53 0 0 1 .407-.124c-.04.152-.075.3-.126.468-.222.762-.453 1.801-.5 2.313-.062.703-.289 1.207-.906 2.093-1.73 2.485-3.218 4.723-3.218 4.813 0 .121.945-.105 1.437-.344.21-.101.941-.734 1.625-1.406.898-.879 1.55-1.34 2.375-1.656.98-.38 1.168-.52 1.25-1 .078-.453.23-.61.844-.813 1.375-.449 3.527-.664 5.156-.437 2.262.312 2.57.578 3.406-1 .063-.106.125-.242.188-.375l.187-.375c.008-.016-.008-.016 0-.032.016-.035.043-.09.063-.124.015-.032.015-.063.031-.094C49.305 34.054 50 30.918 50 26.812c0-4.3-.73-7.44-2.594-11.218C44.043 8.777 37.66 3.898 29.875 2.219c-1.164-.25-3.05-.38-4.938-.375zm3.5 5.906c.05-.004.078.004.125 0 .156-.008.32 0 .468 0h.063c.215.004.422.012.625.031.015 0 .015-.004.031 0 .094.012.191.016.281.032.02.003.043-.004.063 0 .09.015.191.042.281.062.016.004.016-.004.031 0 .094.02.192.04.282.063.007.003-.008.027 0 .03.394.11.769.247 1.125.438.523.285.882.528 1.25.969.214.258.417.574.687 1 .555.863 1.168 2.082 1.719 3.375.707 1.664 1.332 3.453 1.656 4.813-.063.132-.125.28-.125.437 0 .055 0 .133-.031.219-.352.156-.625.5-.625.906 0 .055-.02.285-.157.656-.054.157-.144.313-.218.469-.032.063-.032.125-.063.188a6.744 6.744 0 0 0-.281.625c-.137.332-.23.542-.25.625-.004.011 0 .058 0 .062-.004.012.004.023 0 .031A.997.997 0 0 0 36.344 24c.441 0 .851-.305.968-.75.004-.004.094-.406.344-.875a6.92 6.92 0 0 0 .407-.906c.035-.086.109-.203.187-.344a13.4 13.4 0 0 0 .375-.75c1.176.273 2.93.824 4.156 1.813 1.602 1.289 2.188 2.949 1.594 4.843-.086.27-.18.54-.313.813-1.027 2.16-3.257 3.726-6.437 4.562l-.625.157c-.438.097-.906.207-1.375.28-.137.02-.262.012-.406.032-.559.023-1.278.047-2.125.063H33c-.242.003-.492.027-.75.03h-.875c-.27 0-.566.005-.844 0h-.093a61.106 61.106 0 0 1-1.938-.062c-.27-.027-.563-.058-.813-.093-3.468-.508-7.363-1.743-10.937-3.376-3.46-1.578-6.594-3.539-8.656-5.5-2.871-2.726-3.012-4.855-.375-6.125.765-.37 1.304-.43 3.437-.5l2.5-.093h.031l-.093.687-.031.25c-.055.442-.036.809.062 1.157.16.558.54 1.042 1.219 1.625 2.539 2.175 12.406 5.257 12.406 3.875 0-.075-.074-.196-.156-.313a1.645 1.645 0 0 0-.219-.25c-.332-.3-.61-.883-1.156-2.344a2.383 2.383 0 0 0-.282-.5c-.12-.168-.253-.328-.375-.406-.492-.324-2.269-.84-4.875-1.438-2.18-.5-4.382-1.503-5.062-2.312-.664-.79-.64-1.715.094-4.75.39-1.613.687-2.512 1.062-3.094.278-.43.598-.699 1.063-.937.86-.438.648-.442 5.843-.063 1.278.094 1.907.031 3.25-.312.055-.016.102-.02.157-.031.14-.036.27-.067.406-.094.07-.016.148-.016.219-.032.176-.035.363-.07.531-.093.063-.008.094-.024.156-.032.172-.023.367-.05.532-.062zm-.032 2.125c-.082.004-.168.027-.25.031h-.031c-.074.004-.14-.008-.219 0h-.031c-.078.008-.172.024-.25.031h-.031a7.356 7.356 0 0 0-1.375.282c-.055.02-.11.043-.157.062-.042.02-.09.012-.125.031l-.03.032c-.036.02-.071.011-.095.031a.314.314 0 0 0-.062.063c-.02.03-.008.074 0 .093.02.024.078.035.156.031.078-.003.176 0 .313-.03.082-.02.18-.055.281-.063.102-.008.227 0 .344 0 .703 0 1.59.144 1.906.344.398.25-.012.785-.75 1-.129.035-.227.09-.313.124-.183.079-.265.153-.25.22.02.093.254.183.688.218 1.066.09 2.11-.129 2.75-.469.016-.008.016-.023.031-.031.403-.227.649-.516.625-.813a.368.368 0 0 0-.031-.124c-.191-.497-1.18-.922-2.375-1.032a5.774 5.774 0 0 0-.719-.031zM17.563 11.75a.731.731 0 0 0-.125.031c-.016.004-.016-.008-.032 0-.023.012-.039.047-.062.063-.016.008-.047-.012-.063 0-.035.023-.062.062-.093.094-.012.011-.016.023-.032.03-.023.028-.043.063-.062.095-.012.015-.02.015-.032.03-.023.036-.042.083-.062.126-.004.008.004.023 0 .031-.023.055-.047.094-.063.156-.003.008-.027.024-.03.031-.016.055-.024.126-.032.188v.031c-.008.07 0 .14 0 .219 0 .137.031.29.094.438.125.292.386.593.843 1.062.657.668 1.063.957 1.375.938.153-.012.278-.098.407-.25.332-.399 1.215-.645 3.031-.844 1.262-.14 1.781-.239 1.875-.5.031-.086.016-.188-.031-.313-.137-.36-.668-.582-1.563-.656a12.23 12.23 0 0 0-1.781 0c-1.887.125-2.188.043-3.031-.781-.043-.043-.082-.063-.125-.094a.933.933 0 0 0-.125-.063c-.008-.003-.024-.027-.032-.03a.88.88 0 0 0-.093-.032c-.012-.004-.02 0-.032 0a.447.447 0 0 0-.125 0zm12.75 25.969c-.11-.02-.266.086-.5.343-.403.446-.954.477-1.625.094-.625-.36-1.61-.355-1.907 0-.34.407-.09.875.469.875.266 0 .75.164 1.094.375.343.211.851.375 1.093.375.598 0 1.563-.976 1.563-1.593 0-.297-.078-.45-.188-.47z"/></svg>