<svg xmlns="http://www.w3.org/2000/svg" viewBox="0 0 50 50" fill="#2b3432"><path style="line-height:normal;text-indent:0;text-align:start;text-decoration-line:none;text-decoration-style:solid;text-decoration-color:#000;text-transform:none;block-progression:tb;isolation:auto;mix-blend-mode:normal" d="M25 2.008c-.07 0-.14.005-.21.006a23.073 23.073 0 0 0-1.935.097c-.118.011-.237.02-.355.034a22.96 22.96 0 0 0-.738.093c-.152.022-.304.042-.455.067-.208.033-.414.072-.621.111a22.94 22.94 0 0 0-.541.107 22.892 22.892 0 0 0-3.393 1.008l-.172.067c-.307.12-.611.247-.912.38-.052.023-.103.048-.154.07-.28.127-.556.257-.828.393-.096.048-.19.098-.286.147a22.89 22.89 0 0 0-.724.392c-.056.032-.114.06-.17.092-.056.032-.11.067-.166.1a22.946 22.946 0 0 0-1.057.66c-.098.065-.196.13-.293.197a22.68 22.68 0 0 0-8.582 11.034c-.014.038-.025.077-.039.115-.108.303-.214.607-.31.916-.03.093-.054.188-.082.281-.065.216-.133.431-.192.65-.016.06-.027.12-.043.18-.018.07-.033.142-.05.213-.077.305-.148.61-.212.916-.006.034-.012.068-.02.102a22.916 22.916 0 0 0 .253 10.244l.045.168a22.948 22.948 0 0 0 .746 2.33 23.142 23.142 0 0 0 .61 1.453c.11.239.225.474.343.709.045.09.09.181.137.271.124.24.254.477.386.711.032.057.06.116.092.172.024.041.05.079.074.12.216.367.44.73.674 1.083.053.08.103.16.157.239a22.975 22.975 0 0 0 1.439 1.894c.606.72 1.251 1.394 1.93 2.024.098.09.195.183.295.273.211.19.426.374.644.555.1.083.202.163.303.244.331.265.668.522 1.012.767.206.149.413.296.625.438.138.092.279.18.42.27.27.172.544.338.822.5l.295.17a22.85 22.85 0 0 0 8.218 2.718l.157.02c.392.048.787.088 1.185.117.101.007.202.017.303.023.455.027.913.043 1.375.043h.021c.439 0 .873-.016 1.305-.04.18-.011.36-.027.54-.042.27-.022.541-.047.81-.078.165-.02.33-.038.496-.06.347-.048.69-.106 1.033-.168.093-.018.186-.033.28-.051.463-.092.923-.194 1.376-.313l.063-.017c.44-.117.875-.25 1.305-.391l.16-.055c.45-.152.896-.315 1.334-.494l.004-.002a22.83 22.83 0 0 0 1.394-.625l.022-.011c.415-.205.823-.421 1.224-.649.042-.024.085-.044.127-.068.056-.032.11-.067.166-.1a22.944 22.944 0 0 0 1.057-.66c.098-.065.196-.13.293-.197a22.68 22.68 0 0 0 8.59-11.055l.03-.094c.11-.303.215-.607.311-.916.03-.093.054-.188.082-.281.065-.216.133-.431.192-.65.016-.06.027-.12.043-.18.018-.07.033-.142.05-.213.079-.313.153-.627.217-.941.006-.026.009-.051.014-.077.694-3.427.6-6.913-.252-10.244l-.045-.168a22.95 22.95 0 0 0-.746-2.33 23.143 23.143 0 0 0-.61-1.453 22.84 22.84 0 0 0-.343-.709c-.045-.09-.09-.181-.137-.271-.124-.24-.254-.477-.386-.711-.032-.057-.06-.116-.092-.172-.032-.055-.066-.106-.098-.16a22.94 22.94 0 0 0-.355-.582 23.033 23.033 0 0 0-.543-.83c-.164-.238-.33-.472-.5-.702l-.047-.06a22.72 22.72 0 0 0-6.389-5.8c-.187-.116-.38-.224-.57-.333-.12-.068-.237-.14-.358-.205a22.846 22.846 0 0 0-7.238-2.506l-.031-.004c-.302-.05-.606-.093-.912-.13l-.246-.032a23.22 23.22 0 0 0-.67-.064 23.115 23.115 0 0 0-.578-.045c-.157-.01-.315-.016-.473-.022-.246-.01-.492-.017-.738-.02-.061 0-.121-.003-.182-.003zM32.5 10a2.5 2.5 0 1 1 0 5 2.5 2.5 0 0 1 0-5zM25 13.004c1.073 0 2.107.152 3.096.414A4.506 4.506 0 0 0 32.5 17a4.44 4.44 0 0 0 1.254-.2 11.924 11.924 0 0 1 3.191 7.2H32.93c-.495-3.94-3.86-7-7.932-7a7.958 7.958 0 0 0-3.111.63l-1.98-3.487A11.983 11.983 0 0 1 25 13.003zm-6.832 2.129l1.996 3.51c-1.919 1.462-3.166 3.764-3.166 6.357 0 2.584 1.238 4.878 3.145 6.342l-2.006 3.502a11.952 11.952 0 0 1-4.655-6.5C14.406 27.519 15 26.333 15 25c0-1.333-.594-2.519-1.518-3.344a11.953 11.953 0 0 1 4.686-6.523zM10.5 22.5a2.5 2.5 0 1 1 0 5 2.5 2.5 0 0 1 0-5zM32.93 26h4.015a11.924 11.924 0 0 1-3.045 7.041c-.134-.012-.263-.041-.4-.041-2.037 0-3.743 1.37-4.295 3.23a12.015 12.015 0 0 1-4.205.766 11.99 11.99 0 0 1-5.129-1.156l1.992-3.48c.964.412 2.022.64 3.135.64 4.072 0 7.437-3.06 7.932-7zm.57 9a2.5 2.5 0 1 1 0 5 2.5 2.5 0 0 1 0-5z" font-weight="400" font-family="sans-serif" overflow="visible"/></svg>